<svg id="Layer_1" enable-background="new 0 0 512.365 512.365" height="512" fill="#f3aa4e" viewBox="0 0 512.365 512.365" width="512" xmlns="http://www.w3.org/2000/svg"><path d="m343.975 176.285h-4.231c-4.418 0-8 3.582-8 8s3.582 8 8 8h9.667v6.949c0 4.418 3.582 8 8 8s8-3.582 8-8v-6.949h11.18v6.949c0 4.418 3.582 8 8 8s8-3.582 8-8v-8.621c18.408-6.817 23.688-30.399 9.814-44.379 13.886-13.991 8.579-37.567-9.814-44.379v-8.621c0-4.418-3.582-8-8-8s-8 3.582-8 8v6.949h-11.18v-6.949c0-4.418-3.582-8-8-8s-8 3.582-8 8v6.949h-9.667c-4.418 0-8 3.582-8 8s3.582 8 8 8h4.231zm39.255 0h-23.256v-22.051h23.256c6.08 0 11.026 4.946 11.026 11.026s-4.945 11.025-11.026 11.025zm0-38.052h-23.256v-22.051h23.256c6.08 0 11.026 4.946 11.026 11.026.001 6.079-4.945 11.025-11.026 11.025z"/><path d="m506.93 278.93c-9.06-13.772-26.849-18.288-40.133-12.529l-163.583 70.621c-9.756 3.825-20.311 4.617-30.532 2.288-61.41-13.992-57.005-12.614-57.71-14.022-.847-1.695.542-3.616 2.412-3.347l54.127 7.732c17.839 2.548 35.493-7.138 42.928-23.555 9.458-20.888-.114-45.412-21.216-54.372l-88.205-37.457c-19.368-8.224-41.039-7.108-59.459 3.067-.331.182 2.931-1.869-59.445 37.55-3.647-8.614-12.186-14.673-22.114-14.673h-40c-13.233 0-24 10.766-24 24v188c0 13.234 10.767 24 24 24h40c13.233 0 24-10.766 24-24v-10.355c205.885 15.98 192.012 14.996 195.802 14.996 14.137 0 27.89-4.593 37.871-11.476l175.987-120.657c15.094-10.097 19.253-30.635 9.27-45.811zm-18.19 32.528c-.101.067 1.09-.748-176.072 120.715-9.576 6.37-21.164 9.412-32.604 8.565l-192.064-14.908v-35.597c0-4.418-3.582-8-8-8s-8 3.582-8 8v62c0 4.411-3.589 8-8 8h-40c-4.411 0-8-3.589-8-8v-188c0-4.411 3.589-8 8-8h40c4.411 0 8 3.589 8 8v87.5c0 4.418 3.582 8 8 8s8-3.582 8-8v-79.092l65.494-41.388c14.041-7.68 30.529-8.496 45.27-2.236l88.205 37.457c12.852 5.458 18.631 20.378 12.895 33.045-4.519 9.978-15.238 15.866-26.091 14.316l-54.125-7.732c-14.622-2.087-25.594 13.129-18.986 26.343 2.463 4.925 6.954 8.45 12.322 9.674l56.144 12.792c14.727 3.355 29.841 1.391 40.308-3.147l163.577-70.618c7.501-2.902 16.127-.148 20.551 6.579 5.172 7.863 3.009 18.51-4.824 23.732z"/><path d="m371.5 255.233c60.379 0 109.5-49.122 109.5-109.5 0-80.312-84.08-133.28-156.379-98.984-3.992 1.894-5.693 6.665-3.799 10.657 1.893 3.991 6.66 5.694 10.656 3.799 61.724-29.28 133.522 15.944 133.522 84.528 0 51.556-41.944 93.5-93.5 93.5-72.131 0-116.687-78.448-81.028-140.188 2.21-3.826.899-8.719-2.927-10.928-3.829-2.211-8.719-.899-10.929 2.927-41.762 72.314 10.401 164.189 94.884 164.189z"/><path d="m303.65 78.245c6.672 0 11.179-8.198 6.325-13.643-2.939-3.298-7.996-3.589-11.295-.649-6.251 5.601-1.994 14.292 4.97 14.292z"/><path d="m49 287.233c-4.418 0-8 3.582-8 8v14c0 4.418 3.582 8 8 8s8-3.582 8-8v-14c0-4.418-3.582-8-8-8z"/></svg>